<svg xmlns="http://www.w3.org/2000/svg" width="109" height="32" viewBox="0 0 109 32">
    <g fill="none" fill-rule="evenodd">
        <g>
            <g>
                <path fill="#37B4AF" d="M63.163 7.588c3.73 0 7.99 2.74 7.99 8.577s-4.425 8.562-7.922 8.562c-2.178 0-3.959-.712-5.016-1.94V32h-4.522V7.918h4.522v1.88c1.224-1.453 3.047-2.267 4.948-2.21zM9.217 0c3.93 0 6.176 1.484 8.121 3.496l-3.803 2.87c-.92-1.471-2.558-2.338-4.293-2.274-2.145 0-3.3 1.154-3.3 2.672 0 1.558 1.645 2.247 3.706 2.94l.464.154.716.237.41.134c3.156 1.05 6.551 2.57 6.551 6.993 0 3.825-3.036 7.505-8.349 7.505-3.639.08-7.115-1.506-9.44-4.305l4.191-3.302c1.189 2.046 3.086 3.244 5.216 3.244 2.343 0 3.6-1.518 3.6-3.166 0-1.855-2.133-2.525-4.51-3.249l-.478-.145c-3.23-.97-6.83-2.245-6.83-6.861C1.189 3.069 4.555 0 9.217 0zm34.787 7.641c4.718.007 8.538 3.834 8.535 8.55-.004 4.715-3.83 8.536-8.548 8.536-2.272.004-4.451-.897-6.056-2.504-1.604-1.608-2.501-3.788-2.492-6.058.01-4.716 3.842-8.53 8.56-8.524zM23.499.33v9.4c1.115-1.367 2.79-2.155 4.556-2.142 3.88 0 6.238 2.507 6.238 6.788v10.036h-4.589v-9.435c0-2.245-1.024-3.53-3.037-3.53-1.717 0-3.139 1.188-3.139 3.961v9.004h-4.52V.33h4.491zM62.31 11.7c-2.426 0-4.225 1.982-4.225 4.421s1.78 4.456 4.225 4.456c1.182.015 2.319-.45 3.152-1.288.832-.838 1.29-1.977 1.267-3.158v-.01c.03-1.18-.426-2.322-1.261-3.157-.835-.836-1.977-1.293-3.158-1.265zm-18.318.174c-1.118.016-2.183.48-2.958 1.285-.72.749-1.133 1.735-1.165 2.767v.239c-.03 1.117.39 2.2 1.165 3.005.775.806 1.84 1.27 2.958 1.286 2.331-.043 4.19-1.96 4.157-4.291.033-2.33-1.826-4.249-4.157-4.291z" transform="translate(-130 -16) translate(130 16)"/>
                <path fill="#FCCD03" d="M101.015 7.566c3.728 0 7.985 2.742 7.985 8.585 0 5.843-4.412 8.57-7.907 8.57-2.182 0-3.96-.713-5.027-1.941V32h-4.509V7.896h4.509V9.78c1.225-1.456 3.048-2.27 4.95-2.213zM76.95.302V16.35c-.026 1.09.39 2.146 1.156 2.923.764.778 1.812 1.211 2.902 1.202 1.1.011 2.158-.418 2.938-1.193.781-.776 1.22-1.831 1.217-2.932V.302h4.6v15.752c0 5.755-3.708 8.667-8.726 8.667-5.018 0-8.673-2.912-8.673-8.667V.302h4.586zm23.207 11.38c-1.151.01-2.25.485-3.046 1.319-.795.834-1.22 1.954-1.176 3.106 0 2.427 1.784 4.46 4.222 4.46 1.184.019 2.324-.445 3.16-1.284.835-.839 1.294-1.982 1.271-3.166l-.01-.01c.029-1.182-.428-2.324-1.263-3.16-.836-.836-1.977-1.294-3.158-1.265z" transform="translate(-130 -16) translate(130 16)"/>
            </g>
        </g>
    </g>
</svg>
