<svg xmlns="http://www.w3.org/2000/svg" width="90" height="56" viewBox="0 0 90 56">
    <g fill="none" fill-rule="evenodd">
        <g fill-rule="nonzero">
            <g>
                <g>
                    <g transform="translate(-159 -447) translate(130 447) translate(29) translate(29 3)">
                        <circle cx="16.123" cy="16.105" r="16.036" fill="#32FF14"/>
                        <path fill="#14499C" d="M8.097 18.117l1.748-1.75 4.284 2.834-.682.682c-1.469 1.469-1.469 3.882 0 5.35 1.47 1.47 3.883 1.47 5.352 0 1.468-1.468 1.468-3.881 0-5.35l-.682-.682 4.284-2.833 1.766 1.766 1.801-1.801-9.863-9.863-9.827 9.828 1.818 1.819zm8.008-8.027l4.425 4.424-4.425 2.938-4.424-2.938 4.424-4.424zm-.856 13.342c-.49-.49-.49-1.259 0-1.748l.874-.875.875.875c.49.49.49 1.259 0 1.748-.49.473-1.277.473-1.749 0z"/>
                    </g>
                    <g fill="#0046A0">
                        <path d="M2.356 11.5H0V4.4C0 1.474 1.555 0 4.64 0c1.67 0 2.814.545 3.43 1.656C8.689.545 9.832 0 11.502 0c3.201 0 4.62 1.497 4.62 4.4v7.1h-2.355V4.4c0-1.542-.502-2.223-2.264-2.223-1.761 0-2.31.68-2.31 2.223v7.1H6.907V4.4c0-1.542-.503-2.223-2.264-2.223-1.762 0-2.287.68-2.287 2.223v7.1zM17.586 6.996V5.003C17.586 1.76 19.266 0 22.737 0c3.561 0 5.107 1.668 5.107 5.003v1.994c0 3.22-1.68 5.003-5.107 5.003-3.584.002-5.151-1.667-5.151-5.004zM25.4 4.954c0-2.068-.596-2.954-2.665-2.954s-2.708.886-2.708 2.954V7.07c0 2.043.597 2.929 2.708 2.929 2.068 0 2.665-.862 2.665-2.93V4.955zM29.31 11.5V0h2.442v11.5h-2.443zm7.315-11h2.97L35.54 4.89c-.298.288-.46.555-.46.8 0 .198.138.465.437.776l4.54 5.034h-2.971L33.65 7.663c-.623-.687-.921-1.352-.921-2.04 0-.71.184-1.109.921-1.885L36.625.5zM49.337 8.294c0 2.572-1.45 3.706-4.752 3.706-3.012 0-4.529-1.181-4.529-3.567 0-2.479 1.606-3.501 4.552-3.501h2.454V3.799c0-1.366-.867-1.76-2.634-1.76-1.36 0-2.408.139-3.168.44V.394C42.018.14 43.023 0 44.295 0c3.235 0 5.042 1.042 5.042 3.801v4.493zM46.895 6.5h-2.547c-1.6 0-2.338.5-2.338 1.774 0 1.324.88 1.726 2.269 1.726 1.736 0 2.615-.374 2.615-1.949l.001-1.551zM52.744 11.5h-2.43V4.4c0-2.926 1.603-4.4 4.782-4.4 1.72 0 2.898.545 3.534 1.656C59.266.545 60.444 0 62.164 0c3.298 0 4.76 1.497 4.76 4.4v7.1H64.5V4.4c0-1.542-.518-2.223-2.333-2.223-1.815 0-2.38.68-2.38 2.223v7.1h-2.352V4.4c0-1.542-.518-2.223-2.333-2.223-1.815 0-2.356.68-2.356 2.223l-.003 7.1z" transform="translate(-159 -447) translate(130 447) translate(29) translate(12 40)"/>
                    </g>
                </g>
            </g>
        </g>
    </g>
</svg>
